Coordinates
version=1
nRows=13
nColumns=40
inDegrees=yes
endheader
time	pelvis_tilt	pelvis_list	pelvis_rotation	pelvis_tx	pelvis_ty	pelvis_tz	hip_flexion_r	hip_adduction_r	hip_rotation_r	knee_angle_r	knee_angle_r_beta	ankle_angle_r	subtalar_angle_r	mtp_angle_r	hip_flexion_l	hip_adduction_l	hip_rotation_l	knee_angle_l	knee_angle_l_beta	ankle_angle_l	subtalar_angle_l	mtp_angle_l	lumbar_extension	lumbar_bending	lumbar_rotation	arm_flex_r	arm_add_r	arm_rot_r	elbow_flex_r	pro_sup_r	wrist_flex_r	wrist_dev_r	arm_flex_l	arm_add_l	arm_rot_l	elbow_flex_l	pro_sup_l	wrist_flex_l	wrist_dev_l
1760624789.99399996	      4.17200806	      0.00949399	      2.31471661	      0.04896811	      0.95410702	      0.00646577	     80.00000000	     -7.00000000	      0.00000000	     80.00000000	      1.39626340	      0.00000000	      0.00000000	      0.00000000	     80.00000000	     -7.00000000	      0.00000000	     80.00000000	      1.39626340	      0.00000000	      0.00000000	      0.00000000	     -3.63152376	     -1.01974009	      1.96869777	      2.68749122	     -2.70577481	     -6.97970137	      8.52750242	      3.56772212	     -4.77744349	     -2.49627958	      2.73837485	     -1.83824654	      2.86676343	      0.08555859	      0.00000000	      4.08542787	     -0.91655781
1760624790.02800012	      4.16977652	      0.01407270	      2.31942891	      0.04991793	      0.95405225	      0.00621857	     80.00000000	     -7.00000000	      0.00000000	     80.00000000	      1.39626340	      0.00000000	      0.00000000	      0.00000000	     80.00000000	     -7.00000000	      0.00000000	     80.00000000	      1.39626340	      0.00000000	      0.00000000	      0.00000000	     -3.63325790	     -1.03799776	      1.99036429	      2.68631902	     -2.71264917	     -7.06042282	      8.54533286	      3.62397332	     -4.78969953	     -2.48400479	      2.71651712	     -1.83754031	      2.86467821	      0.10616469	      0.00000000	      4.07459035	     -0.92118213
1760624790.06100011	      4.17106124	      0.01237189	      2.30568473	      0.05067413	      0.95397096	      0.00598550	     80.00000000	     -7.00000000	      0.00000000	     80.00000000	      1.39626340	      0.00000000	      0.00000000	      0.00000000	     80.00000000	     -7.00000000	      0.00000000	     80.00000000	      1.39626340	      0.00000000	      0.00000000	      0.00000000	     -3.62911241	     -1.04468864	      1.98866072	      2.67871006	     -2.69829703	     -7.03273514	      8.51655609	      3.63253529	     -4.82309847	     -2.46913826	      2.69244052	     -1.82095762	      2.86398471	      0.12241752	      0.00000000	      4.08285333	     -0.92468741
1760624790.09500003	      4.15659506	      0.00494983	      2.31112837	      0.05077825	      0.95400579	      0.00581508	     80.00000000	     -7.00000000	      0.00000000	     80.00000000	      1.39626340	      0.00000000	      0.00000000	      0.00000000	     80.00000000	     -7.00000000	      0.00000000	     80.00000000	      1.39626340	      0.00000000	      0.00000000	      0.00000000	     -3.63582908	     -1.04472210	      2.00516363	      2.67136592	     -2.69786370	     -7.09647451	      8.48231879	      3.78166086	     -4.89696299	     -2.39108046	      2.69766110	     -1.79578083	      2.85297500	      0.15871457	      0.00000000	      4.08598060	     -0.93072337
1760624790.12800002	      4.18719441	     -0.00884364	      2.30219850	      0.04980437	      0.95427105	      0.00569458	     80.00000000	     -7.00000000	      0.00000000	     80.00000000	      1.39626340	      0.00000000	      0.00000000	      0.00000000	     80.00000000	     -7.00000000	      0.00000000	     80.00000000	      1.39626340	      0.00000000	      0.00000000	      0.00000000	     -3.70682298	     -1.02983883	      2.01429237	      2.71205965	     -2.70157025	     -7.08560126	      8.56539883	      3.68999673	     -4.94371083	     -2.37662355	      2.76318258	     -1.76561089	      2.83766436	      0.14544527	      0.00000000	      4.10083252	     -0.94649176
1760624790.16199994	      4.20058217	     -0.01521351	      2.30294179	      0.05022789	      0.95425109	      0.00555835	     80.00000000	     -7.00000000	      0.00000000	     80.00000000	      1.39626340	      0.00000000	      0.00000000	      0.00000000	     80.00000000	     -7.00000000	      0.00000000	     80.00000000	      1.39626340	      0.00000000	      0.00000000	      0.00000000	     -3.78133273	     -1.02109882	      2.01936843	      2.76574068	     -2.70110400	     -7.07066814	      8.59282506	      3.62507113	     -4.99193473	     -2.39312200	      2.83065802	     -1.75605658	      2.84065481	      0.15749060	      0.00000000	      4.11247989	     -0.92324932
1760624790.19499993	      4.32623326	     -0.02991443	      2.30499957	      0.05051665	      0.95468269	      0.00572668	     80.00000000	     -7.00000000	      0.00000000	     80.00000000	      1.39626340	      0.00000000	      0.00000000	      0.00000000	     80.00000000	     -7.00000000	      0.00000000	     80.00000000	      1.39626340	      0.00000000	      0.00000000	      0.00000000	     -3.98815070	     -1.00252517	      2.01599260	      2.84257250	     -2.71449050	     -7.08252642	      8.74359902	      3.61883617	     -5.08979162	     -2.41189674	      2.94229484	     -1.76079294	      2.81796776	      0.16452602	      0.00000000	      4.16798823	     -0.89619263
1760624790.22900009	      4.30901902	     -0.03235187	      2.30145420	      0.04974330	      0.95465503	      0.00551933	     80.00000000	     -7.00000000	      0.00000000	     80.00000000	      1.39626340	      0.00000000	      0.00000000	      0.00000000	     80.00000000	     -7.00000000	      0.00000000	     80.00000000	      1.39626340	      0.00000000	      0.00000000	      0.00000000	     -4.04273201	     -0.98910200	      2.00982247	      2.91817308	     -2.74285113	     -7.08367009	      8.76487135	      3.60809331	     -5.09746257	     -2.42087395	      3.01993887	     -1.76655531	      2.82635946	      0.16877827	      0.00000000	      4.16870668	     -0.89850310
1760624790.26200008	      4.32243053	     -0.04379282	      2.30218735	      0.04902811	      0.95469414	      0.00523077	     80.00000000	     -7.00000000	      0.00000000	     80.00000000	      1.39626340	      0.00000000	      0.00000000	      0.00000000	     80.00000000	     -7.00000000	      0.00000000	     80.00000000	      1.39626340	      0.00000000	      0.00000000	      0.00000000	     -4.15775972	     -0.94940340	      1.99715492	      3.00053610	     -2.79600030	     -7.12116963	      8.77677500	      3.66149037	     -5.13513476	     -2.42921073	      3.13023536	     -1.76856165	      2.84525941	      0.16226153	      0.00000000	      4.18256632	     -0.88400968
1760624790.29600000	      4.34455940	     -0.05892501	      2.30094496	      0.04847540	      0.95468492	      0.00509315	     80.00000000	     -7.00000000	      0.00000000	     80.00000000	      1.39626340	      0.00000000	      0.00000000	      0.00000000	     80.00000000	     -7.00000000	      0.00000000	     80.00000000	      1.39626340	      0.00000000	      0.00000000	      0.00000000	     -4.24319828	     -0.91613564	      1.98441394	      3.05380868	     -2.82694390	     -7.10968037	      8.81097611	      3.68721937	     -5.12427571	     -2.43733523	      3.20502750	     -1.78909950	      2.78572601	      0.15223734	      0.00000000	      4.20435423	     -0.84968689
1760624790.32900000	      4.43136905	     -0.08025318	      2.31618710	      0.04888356	      0.95472059	      0.00503948	     80.00000000	     -7.00000000	      0.00000000	     80.00000000	      1.39626340	      0.00000000	      0.00000000	      0.00000000	     80.00000000	     -7.00000000	      0.00000000	     80.00000000	      1.39626340	      0.00000000	      0.00000000	      0.00000000	     -4.43072885	     -0.87396796	      1.95713313	      3.13871009	     -2.88701118	     -7.19160496	      8.97073651	      3.82648005	     -5.24145024	     -2.38997343	      3.29579988	     -1.80240864	      2.78459461	      0.16458443	      0.00000000	      4.27147874	     -0.85134566
1760624790.36299992	      4.38920682	     -0.07844804	      2.31398682	      0.04843669	      0.95464498	      0.00499365	     80.00000000	     -7.00000000	      0.00000000	     80.00000000	      1.39626340	      0.00000000	      0.00000000	      0.00000000	     80.00000000	     -7.00000000	      0.00000000	     80.00000000	      1.39626340	      0.00000000	      0.00000000	      0.00000000	     -4.49857330	     -0.84492970	      1.94633369	      3.24570748	     -2.93490787	     -7.20031794	      8.92649599	      3.95130681	     -5.28022797	     -2.36002894	      3.36564777	     -1.81176492	      2.80224199	      0.16850498	      0.00000000	      4.31002023	     -0.85056731
1760624790.39599991	      4.36189224	     -0.07374507	      2.31572227	      0.04770842	      0.95463616	      0.00483691	     80.00000000	     -7.00000000	      0.00000000	     80.00000000	      1.39626340	      0.00000000	      0.00000000	      0.00000000	     80.00000000	     -7.00000000	      0.00000000	     80.00000000	      1.39626340	      0.00000000	      0.00000000	      0.00000000	     -4.53555343	     -0.82371995	      1.94153865	      3.29452012	     -2.98438791	     -7.21312877	      8.93701708	      3.97734502	     -5.27552432	     -2.35435415	      3.38952638	     -1.81409387	      2.82308558	      0.18384408	      0.00000000	      4.32257982	     -0.84993247
